<?xml version="1.0" encoding="utf-8"?><svg viewBox="0 0 30 30" xmlns="http://www.w3.org/2000/svg" xmlns:xlink="http://www.w3.org/1999/xlink"><style>:root>svg{display:none}:root>svg:target{display:block}</style><svg fill="none" viewBox="0 0 19 11" id="arrcircle" xmlns="http://www.w3.org/2000/svg"><path d="M18.495 5.895a.7.7 0 000-.99L14.04.45a.7.7 0 10-.99.99l3.96 3.96-3.96 3.96a.7.7 0 10.99.99l4.455-4.455zM0 6.1h18V4.7H0v1.4z" fill="#F7F6F5"/></svg><svg viewBox="0 0 27 24" id="arrow-slider" xmlns="http://www.w3.org/2000/svg"><path d="M.94 10.94a1.5 1.5 0 000 2.12l9.545 9.547a1.5 1.5 0 102.122-2.122L4.12 12l8.486-8.485a1.5 1.5 0 10-2.122-2.122L.94 10.94zM27 10.5H2v3h25v-3z"/></svg><svg fill="none" viewBox="0 0 12 16" id="arrow-time" xmlns="http://www.w3.org/2000/svg"><path d="M11.707 8.707a1 1 0 000-1.414L5.343.929A1 1 0 003.93 2.343L9.586 8l-5.657 5.657a1 1 0 101.414 1.414l6.364-6.364zM0 9h11V7H0v2z" fill="#000"/></svg><svg fill="none" viewBox="0 0 30 30" id="cart" xmlns="http://www.w3.org/2000/svg"><path d="M8.962 27.469c-.62 0-1.15-.221-1.587-.663a2.184 2.184 0 01-.656-1.594c0-.62.22-1.15.663-1.587a2.184 2.184 0 011.593-.656c.621 0 1.15.22 1.588.663.437.442.656.973.656 1.593 0 .621-.221 1.15-.663 1.587a2.184 2.184 0 01-1.594.657zm12.5 0c-.62 0-1.15-.221-1.587-.663a2.184 2.184 0 01-.656-1.594c0-.62.22-1.15.663-1.587a2.184 2.184 0 011.593-.656c.621 0 1.15.22 1.587.663.438.442.657.973.657 1.593 0 .621-.221 1.15-.663 1.587a2.184 2.184 0 01-1.594.657zM7.344 6.844l3.437 7.125h9l3.907-7.125H7.343zm-.938-1.875h18.409c.478 0 .842.218 1.092.656.25.438.25.875 0 1.313l-4.22 7.593a2.79 2.79 0 01-.892.953c-.366.24-.766.36-1.201.36h-9.469l-1.75 3.25h15.344v1.875H8.656c-.875 0-1.505-.292-1.89-.875-.386-.584-.38-1.24.015-1.969l2-3.688-4.75-10.062H1.594V2.5H5.25l1.156 2.469z" fill="#01304C"/></svg><svg fill="none" viewBox="0 0 30 30" id="cart-white" xmlns="http://www.w3.org/2000/svg"><path d="M8.962 27.469c-.62 0-1.15-.221-1.587-.663a2.184 2.184 0 01-.656-1.594c0-.62.22-1.15.663-1.587a2.184 2.184 0 011.593-.656c.621 0 1.15.22 1.588.663.437.442.656.973.656 1.593 0 .621-.221 1.15-.663 1.587a2.184 2.184 0 01-1.594.657zm12.5 0c-.62 0-1.15-.221-1.587-.663a2.184 2.184 0 01-.656-1.594c0-.62.22-1.15.663-1.587a2.184 2.184 0 011.593-.656c.621 0 1.15.22 1.587.663.438.442.657.973.657 1.593 0 .621-.221 1.15-.663 1.587a2.184 2.184 0 01-1.594.657zM7.344 6.844l3.437 7.125h9l3.907-7.125H7.343zm-.938-1.875h18.409c.478 0 .842.218 1.092.656.25.438.25.875 0 1.313l-4.22 7.593a2.79 2.79 0 01-.892.953c-.366.24-.766.36-1.201.36h-9.469l-1.75 3.25h15.344v1.875H8.656c-.875 0-1.505-.292-1.89-.875-.386-.584-.38-1.24.015-1.969l2-3.688-4.75-10.062H1.594V2.5H5.25l1.156 2.469z" fill="#FFF"/></svg><svg fill="none" viewBox="0 0 17 17" id="close" xmlns="http://www.w3.org/2000/svg"><path d="M4.49 13.24l-.73-.73L7.772 8.5l-4.01-4.01.729-.73L8.5 7.77l4.01-4.01.73.73L9.23 8.5l4.01 4.01-.73.73L8.5 9.23l-4.01 4.01z" fill="#F7F6F5"/></svg><svg fill="none" viewBox="0 0 20 23" id="delete" xmlns="http://www.w3.org/2000/svg"><path d="M3.156 22.5c-.515 0-.957-.184-1.324-.55a1.806 1.806 0 01-.55-1.325V2.812H0V.938h5.875V0h8.25v.938H20v1.875h-1.281v17.812c0 .5-.188.938-.563 1.313-.375.375-.812.562-1.312.562H3.156zM16.844 2.812H3.156v17.813h13.688V2.812zM6.469 17.938h1.875V5.467H6.469v12.47zm5.187 0h1.875V5.467h-1.875v12.47z" fill="#01304C"/></svg><svg fill="none" viewBox="0 0 20 23" id="delete-red" xmlns="http://www.w3.org/2000/svg"><path d="M3.156 22.5c-.515 0-.957-.184-1.324-.55a1.806 1.806 0 01-.55-1.325V2.812H0V.938h5.875V0h8.25v.938H20v1.875h-1.281v17.812c0 .5-.188.938-.563 1.313-.375.375-.812.562-1.312.562H3.156zM16.844 2.812H3.156v17.813h13.688V2.812zM6.469 17.938h1.875V5.467H6.469v12.47zm5.187 0h1.875V5.467h-1.875v12.47z" fill="#D35343"/></svg><svg fill="none" viewBox="0 0 25 25" id="done" xmlns="http://www.w3.org/2000/svg"><path d="M9.746 18.387L4.01 12.652l1.1-1.1 4.635 4.633 9.83-9.83 1.101 1.1L9.746 18.387z" fill="#F7F6F5"/></svg><svg fill="none" viewBox="0 0 16 28" id="facebook" xmlns="http://www.w3.org/2000/svg"><path d="M14.75 1.5H11a6.25 6.25 0 00-6.25 6.25v3.75H1v5h3.75v10h5v-10h3.75l1.25-5h-5V7.75A1.25 1.25 0 0111 6.5h3.75v-5z"/></svg><svg fill="none" viewBox="0 0 30 30" id="instagram" xmlns="http://www.w3.org/2000/svg"><path d="M21.25 2.5H8.75A6.25 6.25 0 002.5 8.75v12.5a6.25 6.25 0 006.25 6.25h12.5a6.25 6.25 0 006.25-6.25V8.75a6.25 6.25 0 00-6.25-6.25z"/><path d="M20 14.213a5 5 0 11-9.891 1.467A5 5 0 0120 14.213zM21.875 8.125h.012"/></svg><svg fill="none" viewBox="0 0 30 30" id="map" xmlns="http://www.w3.org/2000/svg"><path d="M15.003 14.688a2.1 2.1 0 001.544-.644c.427-.429.64-.944.64-1.547a2.1 2.1 0 00-.643-1.544 2.113 2.113 0 00-1.547-.64 2.1 2.1 0 00-1.544.643c-.427.429-.64.944-.64 1.547a2.1 2.1 0 00.643 1.544c.429.427.944.64 1.547.64zM15 25.03c2.77-2.52 4.818-4.807 6.14-6.86 1.323-2.051 1.985-3.858 1.985-5.421 0-2.454-.784-4.463-2.353-6.028C19.204 5.157 17.28 4.375 15 4.375c-2.28 0-4.204.782-5.772 2.347-1.569 1.565-2.353 3.574-2.353 6.028 0 1.563.677 3.37 2.031 5.422 1.354 2.052 3.386 4.338 6.094 6.86zm0 2.469c-3.354-2.854-5.86-5.505-7.516-7.953C5.828 17.099 5 14.833 5 12.75c0-3.125 1.005-5.615 3.016-7.469C10.026 3.427 12.354 2.5 15 2.5s4.974.927 6.984 2.781S25 9.625 25 12.75c0 2.083-.828 4.349-2.484 6.797-1.657 2.448-4.162 5.099-7.516 7.953z" fill="#000"/></svg><svg fill="none" viewBox="0 0 30 30" id="map-red" xmlns="http://www.w3.org/2000/svg"><path d="M15.003 14.688a2.1 2.1 0 001.544-.644c.427-.429.64-.944.64-1.547a2.1 2.1 0 00-.643-1.544 2.113 2.113 0 00-1.547-.64 2.1 2.1 0 00-1.544.643c-.427.429-.64.944-.64 1.547a2.1 2.1 0 00.643 1.544c.429.427.944.64 1.547.64zM15 25.03c2.77-2.52 4.818-4.807 6.14-6.86 1.323-2.051 1.985-3.858 1.985-5.421 0-2.454-.784-4.463-2.353-6.028C19.204 5.157 17.28 4.375 15 4.375c-2.28 0-4.204.782-5.772 2.347-1.569 1.565-2.353 3.574-2.353 6.028 0 1.563.677 3.37 2.031 5.422 1.354 2.052 3.386 4.338 6.094 6.86zm0 2.469c-3.354-2.854-5.86-5.505-7.516-7.953C5.828 17.099 5 14.833 5 12.75c0-3.125 1.005-5.615 3.016-7.469C10.026 3.427 12.354 2.5 15 2.5s4.974.927 6.984 2.781S25 9.625 25 12.75c0 2.083-.828 4.349-2.484 6.797-1.657 2.448-4.162 5.099-7.516 7.953z" fill="#D35343"/></svg><svg fill="none" viewBox="0 0 30 30" id="search" xmlns="http://www.w3.org/2000/svg"><path d="M24.875 26.219L16.656 18a6.889 6.889 0 01-2.186 1.266 7.73 7.73 0 01-2.658.453c-2.253 0-4.16-.782-5.72-2.344-1.562-1.563-2.342-3.448-2.342-5.656 0-2.209.781-4.094 2.344-5.656C7.656 4.5 9.547 3.719 11.766 3.719c2.218 0 4.104.781 5.656 2.344 1.552 1.562 2.328 3.449 2.328 5.66a7.78 7.78 0 01-.438 2.59A7.933 7.933 0 0118 16.655l8.25 8.188-1.375 1.375zm-13.094-8.375c1.693 0 3.132-.6 4.317-1.797 1.185-1.198 1.777-2.64 1.777-4.328 0-1.688-.592-3.13-1.777-4.328-1.185-1.198-2.624-1.797-4.317-1.797-1.71 0-3.163.599-4.36 1.797-1.197 1.198-1.796 2.64-1.796 4.328 0 1.687.599 3.13 1.796 4.328 1.197 1.198 2.65 1.797 4.36 1.797z" fill="#01304C"/></svg><svg fill="none" viewBox="0 0 25 25" id="send" xmlns="http://www.w3.org/2000/svg"><path fill-rule="evenodd" clip-rule="evenodd" d="M11.289 15.151l4.688 7.607c.206.333.526.33.656.312a.651.651 0 00.553-.476L23.05 2.792a.669.669 0 00-.17-.673.657.657 0 00-.657-.17L2.406 7.752a.654.654 0 00-.475.555.66.66 0 00.309.668l7.694 4.812 6.797-6.87A.963.963 0 0118.1 8.27l-6.81 6.881zm5.244 9.85a2.56 2.56 0 01-2.193-1.234l-4.97-8.066-8.15-5.096a2.57 2.57 0 01-1.194-2.56 2.565 2.565 0 011.84-2.138L21.681.105a2.591 2.591 0 013.21 3.233l-5.863 19.8a2.56 2.56 0 01-2.141 1.838c-.12.015-.237.024-.355.024z" fill="#D35343"/></svg></svg>