<?xml version="1.0" encoding="utf-8"?><svg viewBox="0 0 30 30" xmlns="http://www.w3.org/2000/svg" xmlns:xlink="http://www.w3.org/1999/xlink"><style>:root>svg{display:none}:root>svg:target{display:block}</style><svg fill="none" viewBox="0 0 19 11" id="arrcircle" xmlns="http://www.w3.org/2000/svg"><path d="M18.495 5.895a.7.7 0 000-.99L14.04.45a.7.7 0 10-.99.99l3.96 3.96-3.96 3.96a.7.7 0 10.99.99l4.455-4.455zM0 6.1h18V4.7H0v1.4z" fill="#F7F6F5"/></svg><svg viewBox="0 0 27 24" id="arrow-slider" xmlns="http://www.w3.org/2000/svg"><path d="M.94 10.94a1.5 1.5 0 000 2.12l9.545 9.547a1.5 1.5 0 102.122-2.122L4.12 12l8.486-8.485a1.5 1.5 0 10-2.122-2.122L.94 10.94zM27 10.5H2v3h25v-3z"/></svg><svg fill="none" viewBox="0 0 12 16" id="arrow-time" xmlns="http://www.w3.org/2000/svg"><path d="M11.707 8.707a1 1 0 000-1.414L5.343.929A1 1 0 003.93 2.343L9.586 8l-5.657 5.657a1 1 0 101.414 1.414l6.364-6.364zM0 9h11V7H0v2z" fill="#000"/></svg><svg fill="none" viewBox="0 0 30 30" id="cart" xmlns="http://www.w3.org/2000/svg"><path d="M8.962 27.469c-.62 0-1.15-.221-1.587-.663a2.184 2.184 0 01-.656-1.594c0-.62.22-1.15.663-1.587a2.184 2.184 0 011.593-.656c.621 0 1.15.22 1.588.663.437.442.656.973.656 1.593 0 .621-.221 1.15-.663 1.587a2.184 2.184 0 01-1.594.657zm12.5 0c-.62 0-1.15-.221-1.587-.663a2.184 2.184 0 01-.656-1.594c0-.62.22-1.15.663-1.587a2.184 2.184 0 011.593-.656c.621 0 1.15.22 1.587.663.438.442.657.973.657 1.593 0 .621-.221 1.15-.663 1.587a2.184 2.184 0 01-1.594.657zM7.344 6.844l3.437 7.125h9l3.907-7.125H7.343zm-.938-1.875h18.409c.478 0 .842.218 1.092.656.25.438.25.875 0 1.313l-4.22 7.593a2.79 2.79 0 01-.892.953c-.366.24-.766.36-1.201.36h-9.469l-1.75 3.25h15.344v1.875H8.656c-.875 0-1.505-.292-1.89-.875-.386-.584-.38-1.24.015-1.969l2-3.688-4.75-10.062H1.594V2.5H5.25l1.156 2.469z" fill="#01304C"/></svg><svg fill="none" viewBox="0 0 30 30" id="instagram" xmlns="http://www.w3.org/2000/svg"><path d="M21.25 2.5H8.75A6.25 6.25 0 002.5 8.75v12.5a6.25 6.25 0 006.25 6.25h12.5a6.25 6.25 0 006.25-6.25V8.75a6.25 6.25 0 00-6.25-6.25z" stroke="#000" stroke-width="2" stroke-linecap="round" stroke-linejoin="round"/><path d="M20 14.213a5 5 0 11-9.891 1.467A5 5 0 0120 14.213zM21.875 8.125h.012" stroke="#000" stroke-width="2" stroke-linecap="round" stroke-linejoin="round"/></svg><svg fill="none" viewBox="0 0 30 30" id="search" xmlns="http://www.w3.org/2000/svg"><path d="M24.875 26.219L16.656 18a6.889 6.889 0 01-2.186 1.266 7.73 7.73 0 01-2.658.453c-2.253 0-4.16-.782-5.72-2.344-1.562-1.563-2.342-3.448-2.342-5.656 0-2.209.781-4.094 2.344-5.656C7.656 4.5 9.547 3.719 11.766 3.719c2.218 0 4.104.781 5.656 2.344 1.552 1.562 2.328 3.449 2.328 5.66a7.78 7.78 0 01-.438 2.59A7.933 7.933 0 0118 16.655l8.25 8.188-1.375 1.375zm-13.094-8.375c1.693 0 3.132-.6 4.317-1.797 1.185-1.198 1.777-2.64 1.777-4.328 0-1.688-.592-3.13-1.777-4.328-1.185-1.198-2.624-1.797-4.317-1.797-1.71 0-3.163.599-4.36 1.797-1.197 1.198-1.796 2.64-1.796 4.328 0 1.687.599 3.13 1.796 4.328 1.197 1.198 2.65 1.797 4.36 1.797z" fill="#01304C"/></svg></svg>