<svg width="30" height="30" viewBox="0 0 30 30" fill="none" xmlns="http://www.w3.org/2000/svg">
<path d="M8.96212 27.4688C8.34154 27.4688 7.8125 27.2478 7.375 26.8059C6.9375 26.3639 6.71875 25.8327 6.71875 25.2121C6.71875 24.5915 6.93971 24.0625 7.38163 23.625C7.82356 23.1875 8.35481 22.9688 8.97538 22.9688C9.59596 22.9688 10.125 23.1897 10.5625 23.6316C11 24.0736 11.2188 24.6048 11.2188 25.2254C11.2188 25.846 10.9978 26.375 10.5559 26.8125C10.1139 27.25 9.58269 27.4688 8.96212 27.4688ZM21.4621 27.4688C20.8415 27.4688 20.3125 27.2478 19.875 26.8059C19.4375 26.3639 19.2188 25.8327 19.2188 25.2121C19.2188 24.5915 19.4397 24.0625 19.8816 23.625C20.3236 23.1875 20.8548 22.9688 21.4754 22.9688C22.096 22.9688 22.625 23.1897 23.0625 23.6316C23.5 24.0736 23.7188 24.6048 23.7188 25.2254C23.7188 25.846 23.4978 26.375 23.0559 26.8125C22.6139 27.25 22.0827 27.4688 21.4621 27.4688ZM7.34375 6.84375L10.7812 13.9688H19.7812L24.8148 4.96875L7.34375 6.84375ZM6.40625 4.96875L7.34375 6.84375L24.7735 4.97006L24.8148 4.96875C25.2932 4.96875 25.6572 5.1875 25.9068 5.625C26.1564 6.0625 26.1562 6.5 25.9062 6.9375L21.6875 14.5312C21.4583 14.9271 21.1608 15.2448 20.795 15.4844C20.4292 15.724 20.0288 15.8438 19.5938 15.8438H10.125L8.375 19.0938H23.7188V20.9688H8.65625C7.78125 20.9688 7.15104 20.6771 6.76563 20.0938C6.38021 19.5104 6.38542 18.8542 6.78125 18.125L8.78125 14.4375L4.03125 4.375H1.59375V2.5H5.25L6.40625 4.96875Z" fill="#01304C"/>
<path fill-rule="evenodd" clip-rule="evenodd" d="M14.625 3.6566C14.625 3.41033 14.7172 3.17414 14.8813 3C15.0454 2.82586 15.2679 2.72803 15.5 2.72803C15.7321 2.72803 15.9546 2.82586 16.1187 3C16.2828 3.17414 16.375 3.41033 16.375 3.6566V8.29946H18.125C18.2116 8.29929 18.2964 8.32643 18.3685 8.37744C18.4406 8.42844 18.4968 8.50101 18.5299 8.58595C18.5631 8.67089 18.5718 8.76437 18.5548 8.85455C18.5379 8.94472 18.4961 9.02752 18.4348 9.09246L15.8098 11.8782C15.7691 11.9214 15.7208 11.9557 15.6677 11.9791C15.6145 12.0025 15.5575 12.0146 15.5 12.0146C15.4425 12.0146 15.3855 12.0025 15.3323 11.9791C15.2792 11.9557 15.2309 11.9214 15.1902 11.8782L12.5652 9.09246C12.5039 9.02752 12.4621 8.94472 12.4452 8.85455C12.4282 8.76437 12.4369 8.67089 12.4701 8.58595C12.5032 8.50101 12.5594 8.42844 12.6315 8.37744C12.7036 8.32643 12.7884 8.29929 12.875 8.29946H14.625V3.6566ZM18 14C18.2321 14 18.5796 13.9687 18.7437 14.1429C18.9078 14.317 19 14.5532 19 14.7995C19 15.0457 18.9078 15.2819 18.7437 15.4561C18.5796 15.6302 18.3571 15.728 18.125 15.728H12.875C12.6429 15.728 12.4204 15.6302 12.2563 15.4561C12.0922 15.2819 12 15.0457 12 14.7995C12 14.5532 12.0922 14.317 12.2563 14.1429C12.4204 13.9687 12.7679 14 13 14H18Z" fill="#01304C"/>
</svg>
