<svg width="25" height="25" viewBox="0 0 25 25" fill="none" xmlns="http://www.w3.org/2000/svg">
<path d="M7.36838 24.9688C6.74779 24.9688 6.21875 24.7478 5.78125 24.3059C5.34375 23.8639 5.125 23.3327 5.125 22.7121C5.125 22.0915 5.34596 21.5625 5.78788 21.125C6.22981 20.6875 6.76106 20.4688 7.38163 20.4688C8.00221 20.4688 8.53125 20.6897 8.96875 21.1316C9.40625 21.5736 9.625 22.1048 9.625 22.7254C9.625 23.346 9.40404 23.875 8.96213 24.3125C8.52019 24.75 7.98894 24.9688 7.36838 24.9688ZM19.8684 24.9688C19.2478 24.9688 18.7187 24.7478 18.2812 24.3059C17.8438 23.8639 17.625 23.3327 17.625 22.7121C17.625 22.0915 17.846 21.5625 18.2879 21.125C18.7298 20.6875 19.2611 20.4688 19.8816 20.4688C20.5022 20.4688 21.0313 20.6897 21.4688 21.1316C21.9063 21.5736 22.125 22.1048 22.125 22.7254C22.125 23.346 21.904 23.875 21.4621 24.3125C21.0202 24.75 20.4889 24.9688 19.8684 24.9688ZM5.75 4.34375L9.1875 11.4688H18.1875L22.0938 4.34375H5.75ZM4.8125 2.46875H23.2211C23.6995 2.46875 24.0635 2.6875 24.3131 3.125C24.5627 3.5625 24.5625 4 24.3125 4.4375L20.0938 12.0312C19.8646 12.4271 19.5671 12.7448 19.2013 12.9844C18.8354 13.224 18.435 13.3438 18 13.3438H8.53125L6.78125 16.5938H22.125V18.4688H7.0625C6.1875 18.4688 5.55729 18.1771 5.17188 17.5937C4.78646 17.0104 4.79167 16.3542 5.1875 15.625L7.1875 11.9375L2.4375 1.875H0V0H3.65625L4.8125 2.46875Z" fill="#E3E3E3"/>
</svg>
